<?xml version="1.0" standalone="no"?>
<!DOCTYPE svg PUBLIC "-//W3C//DTD SVG 20010904//EN"
 "http://www.w3.org/TR/2001/REC-SVG-20010904/DTD/svg10.dtd">
<svg version="1.0" xmlns="http://www.w3.org/2000/svg"
 width="96.000000pt" height="96.000000pt" viewBox="0 0 96.000000 96.000000"
 preserveAspectRatio="xMidYMid meet">
<metadata>
Created by potrace 1.11, written by Peter Selinger 2001-2013
</metadata>
<g transform="translate(0.000000,96.000000) scale(0.100000,-0.100000)"
fill="#000000" stroke="none">
<path d="M451 803 c-10 -21 -29 -71 -42 -110 -12 -40 -25 -73 -28 -73 -4 0
-16 18 -29 40 -12 22 -26 40 -31 40 -19 0 -66 -125 -141 -375 -28 -93 -53
-178 -56 -187 -5 -17 17 -18 366 -18 362 0 371 1 365 19 -3 11 -8 28 -10 38
-2 10 -14 52 -25 93 -11 41 -22 82 -24 91 -11 45 -70 207 -81 223 -18 24 -30
15 -64 -52 l-29 -57 -12 45 c-38 144 -110 320 -130 320 -5 0 -18 -17 -29 -37z"/>
</g>
</svg>
